<svg width="24" height="28" viewBox="0 0 24 28" fill="none" xmlns="http://www.w3.org/2000/svg">
<path d="M1.90735e-06 1.40084L1.90735e-06 26.6016C0.000919342 26.8567 0.0814838 27.1068 0.233023 27.3249C0.384563 27.5431 0.601339 27.7209 0.86002 27.8395C1.1187 27.958 1.40949 28.0126 1.70109 27.9975C1.99269 27.9824 2.27405 27.8982 2.51489 27.7538L23.352 15.1534C24.216 14.6312 24.216 13.374 23.352 12.8504L2.51489 0.25001C2.27455 0.104161 1.99305 0.0186316 1.70096 0.00271457C1.40888 -0.0132024 1.11739 0.0411018 0.858162 0.159727C0.598932 0.278353 0.381878 0.456762 0.230583 0.675572C0.0792904 0.894382 -0.000457764 1.14522 1.90735e-06 1.40084Z" fill="#F24E1E"/>
</svg>
