<svg width="25" height="28" viewBox="0 0 25 28" fill="none" xmlns="http://www.w3.org/2000/svg">
<path d="M24.1047 26.5987L24.0057 1.39819C24.0038 1.14305 23.9223 0.893274 23.7699 0.675744C23.6175 0.458214 23.4 0.28117 23.1409 0.163667C22.8817 0.0461646 22.5907 -0.00734676 22.2992 0.00889437C22.0077 0.0251355 21.7266 0.110514 21.4864 0.255838L0.698822 12.9379C-0.163062 13.4635 -0.158127 14.7207 0.707862 15.2409L21.5943 27.7594C21.8352 27.9043 22.1171 27.9887 22.4092 28.0035C22.7013 28.0183 22.9926 27.9628 23.2514 27.8432C23.5101 27.7235 23.7265 27.5443 23.8769 27.3249C24.0274 27.1055 24.1061 26.8543 24.1047 26.5987Z" fill="#F24E1E"/>
</svg>
