<svg width="71" height="91" viewBox="0 0 71 91" fill="none" xmlns="http://www.w3.org/2000/svg">
<path d="M35.5 59.15C39.6417 59.15 43.3766 58.1065 46.7047 56.0196C50.0328 53.9327 52.6583 51.1845 54.5812 47.775C51.9927 45.5758 49.0714 43.8878 45.8172 42.7109C42.563 41.5339 39.124 40.947 35.5 40.95C31.876 40.95 28.437 41.5385 25.1828 42.7154C21.9286 43.8923 19.0073 45.5789 16.4187 47.775C18.3417 51.1875 20.9672 53.9372 24.2953 56.0242C27.6234 58.1111 31.3583 59.153 35.5 59.15ZM35.5 36.4C37.9406 36.4 40.0307 35.5082 41.7702 33.7246C43.5097 31.941 44.378 29.7995 44.375 27.3C44.375 24.7975 43.5052 22.6545 41.7657 20.8708C40.0262 19.0872 37.9377 18.197 35.5 18.2C33.0594 18.2 30.9693 19.0918 29.2298 20.8754C27.4903 22.659 26.622 24.8005 26.625 27.3C26.625 29.8025 27.4948 31.9456 29.2343 33.7292C30.9738 35.5128 33.0623 36.403 35.5 36.4ZM35.5 78.9425C44.5229 70.4492 51.2161 62.7324 55.5797 55.7921C59.9432 48.8518 62.125 42.6911 62.125 37.31C62.125 29.0442 59.5542 22.2768 54.4126 17.0079C49.271 11.739 42.9668 9.10303 35.5 9.1C28.0302 9.1 21.7245 11.736 16.5829 17.0079C11.4414 22.2798 8.87204 29.0472 8.875 37.31C8.875 42.6942 11.0568 48.8564 15.4203 55.7966C19.7839 62.7369 26.4771 70.4522 35.5 78.9425ZM35.5 91C23.5927 80.6108 14.7 70.9618 8.82175 62.0529C2.94354 53.144 0.00295833 44.8964 0 37.31C0 25.935 3.56923 16.8729 10.7077 10.1237C17.8461 3.37458 26.1103 0 35.5 0C44.8927 0 53.1583 3.37458 60.2967 10.1237C67.4352 16.8729 71.003 25.935 71 37.31C71 44.8933 68.0594 53.141 62.1782 62.0529C56.2971 70.9648 47.4043 80.6139 35.5 91Z" fill="#FF6700"/>
</svg>
