<svg width="94" height="91" viewBox="0 0 94 91" fill="none" xmlns="http://www.w3.org/2000/svg">
<path d="M27.2464 91C24.7488 91 22.61 90.1082 20.8299 88.3246C19.0498 86.541 18.1612 84.3995 18.1643 81.9C18.1643 79.3975 19.0543 77.2544 20.8344 75.4708C22.6145 73.6872 24.7518 72.797 27.2464 72.8C29.744 72.8 31.8828 73.6918 33.6629 75.4754C35.443 77.259 36.3315 79.4005 36.3285 81.9C36.3285 84.4025 35.4385 86.5455 33.6584 88.3291C31.8783 90.1127 29.7409 91.003 27.2464 91ZM72.657 91C70.1594 91 68.0206 90.1082 66.2405 88.3246C64.4604 86.541 63.5719 84.3995 63.5749 81.9C63.5749 79.3975 64.4649 77.2544 66.245 75.4708C68.0251 73.6872 70.1624 72.797 72.657 72.8C75.1546 72.8 77.2934 73.6918 79.0735 75.4754C80.8536 77.259 81.7422 79.4005 81.7391 81.9C81.7391 84.4025 80.8491 86.5455 79.069 88.3291C77.2889 90.1127 75.1516 91.003 72.657 91ZM23.3865 18.2L34.285 40.95H66.0725L78.5604 18.2H23.3865ZM11.9203 68.25L25.43 43.68L9.08213 9.1H0V0H14.7585L19.0725 9.1H94L71.4082 50.05H32.2415L27.2464 59.15H81.7391V68.25H11.9203Z" fill="#FF6700"/>
</svg>
