<svg width="42" height="34" viewBox="0 0 42 34" fill="none" xmlns="http://www.w3.org/2000/svg">
<path d="M41.8332 4.50017V29.5002C41.8332 30.646 41.4248 31.6273 40.6082 32.4439C39.7915 33.2606 38.811 33.6682 37.6665 33.6668H4.33317C3.18734 33.6668 2.20609 33.2585 1.38942 32.4418C0.572757 31.6252 0.165119 30.6446 0.166507 29.5002V4.50017C0.166507 3.35433 0.574841 2.37308 1.39151 1.55642C2.20817 0.739749 3.18873 0.332111 4.33317 0.3335H37.6665C38.8123 0.3335 39.7936 0.741833 40.6103 1.5585C41.4269 2.37517 41.8346 3.35572 41.8332 4.50017ZM4.33317 8.66683H37.6665V4.50017H4.33317V8.66683ZM4.33317 17.0002V29.5002H37.6665V17.0002H4.33317Z" fill="#FF6700"/>
</svg>
