<svg width="42" height="34" viewBox="0 0 42 34" fill="none" xmlns="http://www.w3.org/2000/svg">
<path d="M41.8327 4.50017V29.5002C41.8327 30.646 41.4244 31.6273 40.6077 32.4439C39.791 33.2606 38.8105 33.6682 37.666 33.6668H4.33269C3.18685 33.6668 2.2056 33.2585 1.38894 32.4418C0.572269 31.6252 0.16463 30.6446 0.166019 29.5002V4.50017C0.166019 3.35433 0.574353 2.37308 1.39102 1.55642C2.20769 0.739749 3.18824 0.332111 4.33269 0.3335H37.666C38.8119 0.3335 39.7931 0.741833 40.6098 1.5585C41.4264 2.37517 41.8341 3.35572 41.8327 4.50017ZM4.33269 8.66683H37.666V4.50017H4.33269V8.66683ZM4.33269 17.0002V29.5002H37.666V17.0002H4.33269Z" fill="#5CAC0E"/>
</svg>
