<svg width="28" height="20" viewBox="0 0 28 20" fill="none" xmlns="http://www.w3.org/2000/svg">
<path d="M27.8788 2.5V17.5C27.8788 18.1875 27.6056 18.7762 27.0592 19.2662C26.5128 19.7562 25.8567 20.0008 25.091 20H2.78789C2.02122 20 1.36467 19.755 0.818246 19.265C0.271821 18.775 -0.000926928 18.1867 2.36663e-06 17.5V2.5C2.36663e-06 1.8125 0.273215 1.22375 0.81964 0.733752C1.36607 0.243752 2.02215 -0.000831211 2.78789 2.12224e-06H25.091C25.8576 2.12224e-06 26.5142 0.245002 27.0606 0.735002C27.607 1.225 27.8798 1.81334 27.8788 2.5ZM2.78789 2.5C2.78789 3.88071 3.90717 5 5.28789 5H23.841C24.5313 5 25.091 4.44036 25.091 3.75C25.091 3.05965 24.5313 2.5 23.841 2.5H2.78789ZM10.2879 10C6.14574 10 2.78789 13.3579 2.78789 17.5H21.341C23.412 17.5 25.091 15.8211 25.091 13.75C25.091 11.6789 23.412 10 21.341 10H10.2879Z" fill="#5CAC0E"/>
</svg>
