<svg width="39" height="39" viewBox="0 0 39 39" fill="none" xmlns="http://www.w3.org/2000/svg">
<path d="M18.9056 38.8423C17.987 38.7033 17.1422 38.264 16.5756 37.6306L16.1621 37.1684L15.8484 37.4002C15.1594 37.9095 14.3493 38.1921 13.5721 38.1944C11.9205 38.1992 10.3336 36.971 9.91284 35.3621L9.78202 34.8619H9.12686C7.10907 34.8619 5.55906 33.4192 5.27457 31.2764C5.22773 30.9235 5.21556 30.9081 4.98383 30.9081C4.85082 30.9081 4.54382 30.8547 4.30163 30.7894C2.83459 30.3939 1.71094 29.1062 1.47762 27.553C1.34889 26.696 1.46327 26.0165 1.87879 25.1698L2.20289 24.5093L1.79948 24.2394C0.838083 23.5963 0.141113 22.2321 0.141113 20.9934C0.141113 20.4365 0.392587 19.5277 0.693906 18.9956C0.96666 18.5139 1.63533 17.815 2.02071 17.6088L2.23422 17.4945L2.01424 17.1355C1.078 15.6076 1.30773 13.5519 2.55766 12.2729C3.05904 11.7598 3.69545 11.3749 4.29851 11.2201C4.50451 11.1672 4.71095 11.1127 4.75726 11.0989C4.81804 11.0809 4.81283 10.9596 4.73854 10.6632C4.24866 8.70868 5.42433 6.58101 7.33229 5.96917C8.19872 5.69133 9.52035 5.82557 10.2223 6.2627L10.453 6.4064L10.9758 5.80739C11.2633 5.47793 11.6214 5.06631 11.7717 4.89268L12.0449 4.57699L11.8521 4.08315C11.3681 2.84287 11.9114 1.37835 13.0855 0.758407C13.7233 0.421677 14.7244 0.421677 15.3622 0.758407C15.8252 1.00287 16.2972 1.49849 16.5257 1.98009C16.7058 2.35962 16.7333 2.5097 16.7333 3.11518C16.7333 3.70805 16.7037 3.87699 16.5368 4.2393C15.956 5.4998 14.468 6.11572 13.2692 5.5918L12.9879 5.46883L12.6281 5.88128C12.4303 6.10813 12.0804 6.51208 11.8506 6.77895L11.4328 7.26417L11.6256 7.55421C12.2113 8.43543 12.4219 9.67508 12.1615 10.7095C11.7992 12.1491 10.7319 13.2341 9.32447 13.5935L8.85013 13.7147L8.95265 14.0672C9.09185 14.5459 9.08254 15.5895 8.93446 16.106C8.67844 16.9991 8.12833 17.7894 7.41621 18.2872C7.22586 18.4203 7.0601 18.5368 7.04787 18.5461C7.03564 18.5554 7.14264 18.7852 7.28566 19.0568C7.6853 19.8158 7.80456 20.342 7.76466 21.1705C7.72768 21.9382 7.54256 22.5874 7.21414 23.101C7.10706 23.2685 7.0477 23.4304 7.08223 23.4609C7.11677 23.4913 7.32223 23.6476 7.53882 23.8081C8.40082 24.4468 9.04692 25.6619 9.05335 26.6563C9.05518 26.9396 9.05543 26.9398 9.44845 26.9923C11.1525 27.2198 12.3833 28.3324 12.7958 30.0182L12.872 30.3299L13.423 30.3011C14.4819 30.2457 15.4701 30.6489 16.2543 31.4563L16.7491 31.9657L16.9659 31.7814C17.5752 31.2634 18.43 30.9676 19.3176 30.9676C20.2052 30.9676 21.0599 31.2634 21.6693 31.7814L21.8861 31.9657L22.3809 31.4563C23.1651 30.6489 24.1533 30.2457 25.2122 30.3011L25.7632 30.3299L25.8394 30.0182C26.06 29.1165 26.5548 28.3179 27.2029 27.8176C27.8543 27.3148 28.3663 27.1018 29.1867 26.9923C29.5797 26.9398 29.58 26.9396 29.5818 26.6563C29.5882 25.6619 30.2344 24.4468 31.0963 23.8081C31.3129 23.6476 31.5184 23.4913 31.5529 23.4609C31.5875 23.4304 31.5281 23.2685 31.421 23.101C31.0926 22.5874 30.9075 21.9382 30.8705 21.1705C30.8306 20.342 30.9499 19.8158 31.3495 19.0568C31.4925 18.7852 31.5995 18.5554 31.5873 18.5461C31.5751 18.5368 31.4093 18.4203 31.219 18.2872C30.5068 17.7894 29.9567 16.9991 29.7007 16.106C29.5526 15.5895 29.5433 14.5459 29.6825 14.0672L29.785 13.7147L29.3107 13.5935C28.5879 13.4089 28.0198 13.0862 27.5151 12.5733C26.2053 11.2424 25.9886 9.09036 27.0096 7.55421L27.2024 7.26417L26.7846 6.77895C26.5548 6.51208 26.2049 6.10813 26.007 5.88128L25.6473 5.46883L25.379 5.58616C24.5272 5.95863 23.8168 5.75159 23.8168 5.13085C23.8168 4.7651 24.1187 4.47188 24.4951 4.47188C24.8261 4.47188 25.305 4.15979 25.4986 3.81803C25.8365 3.22124 25.7094 2.50586 25.1929 2.09818C24.9508 1.90702 24.8423 1.87477 24.4414 1.87477C24.0833 1.87477 23.923 1.91301 23.7614 2.03695C23.446 2.27882 23.2267 2.65643 23.1685 3.05783C23.1031 3.50914 22.8628 3.77507 22.5233 3.77168C22.0254 3.76671 21.8154 3.3861 21.9365 2.70828C22.1591 1.462 23.0963 0.599019 24.299 0.533C24.6611 0.513121 24.9276 0.543928 25.1604 0.632568C25.3458 0.703163 25.5551 0.779739 25.6254 0.802737C25.6958 0.825736 25.8436 0.771094 25.9539 0.681312C26.5665 0.182641 27.2604 0.946405 26.8012 1.61384C26.6466 1.83855 26.6463 1.84635 26.7825 2.12972C26.9983 2.57891 26.9785 3.77748 26.7479 4.22519L26.5754 4.55994L26.8561 4.88415C28.256 6.50162 28.1682 6.42006 28.3653 6.28642C28.9346 5.90036 30.004 5.71906 30.8455 5.86595C32.9852 6.23948 34.4328 8.52408 33.8934 10.6763C33.8349 10.9094 33.7928 11.103 33.7997 11.1064C33.8067 11.1099 34.0051 11.1558 34.2408 11.2085C36.0118 11.6041 37.3389 13.4372 37.1934 15.2867C37.1432 15.924 36.9297 16.6146 36.6255 17.1236L36.408 17.4876L36.777 17.7327C37.2163 18.0244 37.7338 18.602 38.0089 19.1075C38.2529 19.556 38.4941 20.4935 38.4941 20.9934C38.4941 22.2325 37.829 23.5493 36.8676 24.2137L36.4263 24.5187L36.7094 25.0582C36.8651 25.3549 37.0493 25.8593 37.1188 26.1791C37.4722 27.806 36.6553 29.6329 35.2202 30.4245C34.7349 30.6922 34.0345 30.9081 33.6513 30.9081C33.4196 30.9081 33.4074 30.9235 33.3606 31.2764C33.2304 32.2567 32.8494 33.081 32.2357 33.7097C31.4661 34.4981 30.6049 34.8619 29.5083 34.8619H28.8531L28.7208 35.3681C28.3812 36.6664 27.1675 37.8254 25.8496 38.1099C24.7992 38.3366 23.7157 38.0867 22.7935 37.4052L22.4866 37.1784L22.0049 37.6769C21.4917 38.208 21.0241 38.4961 20.3631 38.6884C19.9002 38.8231 19.2395 38.8929 18.9056 38.8423ZM19.8759 37.457C20.5505 37.3438 21.2522 36.7725 21.6071 36.0476C21.8021 35.6494 21.827 35.5193 21.8266 34.9007C21.8263 34.3487 21.7922 34.1266 21.6634 33.8372C21.419 33.2884 20.8885 32.7462 20.3525 32.4972C19.374 32.0428 18.2081 32.2838 17.4782 33.0914C17.0483 33.5671 16.8369 34.0542 16.7883 34.6813C16.7046 35.76 17.2509 36.7673 18.1881 37.2621C18.4993 37.4264 19.1682 37.5707 19.4299 37.53C19.5123 37.5172 19.713 37.4844 19.8759 37.457ZM14.733 36.5558C15.4654 36.171 15.5269 36.0485 15.5348 34.9569C15.5401 34.2161 15.5728 33.9586 15.7117 33.5656L15.882 33.0833L15.646 32.7283C14.5555 31.0879 12.1171 31.2979 11.2689 33.1052C10.9395 33.807 10.9445 34.7445 11.2814 35.4328C11.4317 35.74 11.9425 36.3005 12.2534 36.4993C12.9756 36.9613 13.9202 36.9828 14.733 36.5558ZM26.0737 36.6636C27.3881 36.0618 27.9839 34.4213 27.3661 33.1049C26.5193 31.3007 24.0778 31.0908 22.989 32.7286L22.7528 33.0839L22.9266 33.6047C23.0676 34.027 23.1004 34.2873 23.1004 34.9816C23.1004 35.6587 23.1272 35.88 23.2285 36.0401C23.3808 36.2807 24.0446 36.6893 24.4556 36.7955C24.8965 36.9094 25.6754 36.8459 26.0737 36.6636ZM9.7402 33.4471C9.80312 33.3938 9.89676 33.1932 9.94828 33.0013C10.1335 32.3116 10.6278 31.5829 11.2361 31.1028C11.6069 30.8101 11.6173 30.7913 11.5827 30.474C11.4993 29.7085 10.8847 28.8881 10.1186 28.5199C9.51946 28.2319 8.67944 28.2319 8.07238 28.5199C7.4892 28.7965 7.07566 29.2094 6.7988 29.7914C6.59495 30.22 6.5635 30.3683 6.5635 30.901C6.5635 31.4293 6.59593 31.5851 6.79357 32.0067C7.13528 32.7355 7.46982 33.0729 8.12874 33.3533C8.62586 33.5648 9.53852 33.6179 9.7402 33.4471ZM30.6287 33.3014C32.5978 32.3427 32.5581 29.4664 30.5628 28.5199C29.9557 28.2319 29.1157 28.2319 28.5166 28.5199C27.7508 28.888 27.1358 29.7085 27.0526 30.4732C27.0193 30.7786 27.0355 30.8139 27.306 31.0245C27.9611 31.5347 28.4976 32.3031 28.6863 33.0013C28.8229 33.5069 28.9163 33.5598 29.6174 33.5287C30.0675 33.5087 30.3193 33.4521 30.6287 33.3014ZM5.71283 29.1115C5.9882 28.5105 6.69744 27.7663 7.31356 27.4319L7.78174 27.1778V26.7976C7.78174 25.911 7.17564 24.9887 6.32103 24.5748C5.93909 24.3899 5.77595 24.3572 5.23486 24.3572C4.69075 24.3572 4.53668 24.3884 4.17555 24.572C3.65832 24.8349 3.18807 25.3481 2.93006 25.9314C2.69429 26.4644 2.66558 27.3294 2.86542 27.8788C3.0065 28.2666 3.35546 28.7636 3.68037 29.0394C4.02279 29.3301 4.70178 29.5868 5.1225 29.5844L5.49704 29.5824L5.71283 29.1115ZM34.4594 29.3405C36.0009 28.606 36.4114 26.5138 35.268 25.2191C34.7107 24.588 34.2106 24.3572 33.4003 24.3572C32.8592 24.3572 32.6961 24.3899 32.3141 24.5748C31.4595 24.9887 30.8534 25.911 30.8534 26.7976V27.1778L31.3216 27.4319C31.9457 27.7707 32.6481 28.511 32.9223 29.119L33.1381 29.5975L33.598 29.5647C33.8688 29.5454 34.223 29.4532 34.4594 29.3405ZM3.58751 23.3878C3.98719 23.1768 4.73331 23.003 5.24583 23.0016C5.63122 23.0006 5.68837 22.9774 5.88919 22.7407C6.32347 22.2288 6.47085 21.7937 6.47085 21.0236C6.47085 20.4327 6.4408 20.2596 6.27452 19.8926C6.03485 19.3637 5.55903 18.876 5.01241 18.5992C4.68027 18.4309 4.49589 18.3913 4.03861 18.3898C3.22332 18.3871 2.76433 18.5802 2.18848 19.1681C1.7854 19.5797 1.70529 19.7119 1.5608 20.2042C1.27167 21.1894 1.48532 22.1128 2.17176 22.8449C2.40414 23.0927 3.10397 23.5366 3.27151 23.5424C3.28345 23.5429 3.42565 23.4733 3.58751 23.3878ZM35.8024 23.3467C37.433 22.4916 37.6889 20.265 36.3018 19.0013C35.6956 18.4491 34.7081 18.2414 33.8742 18.4908C33.1883 18.696 32.487 19.4417 32.2302 20.239C32.0507 20.7964 32.118 21.6252 32.3875 22.1765C32.7192 22.8551 32.8846 22.9725 33.5876 23.0282C34.2073 23.0772 34.7329 23.213 35.0991 23.4184C35.376 23.5737 35.368 23.5745 35.8024 23.3467ZM6.3802 17.4105C6.81243 17.1869 7.30511 16.6819 7.54454 16.217C7.7225 15.8715 7.74417 15.7452 7.74417 15.0541C7.74417 14.363 7.7225 14.2368 7.54454 13.8912C6.51076 11.884 3.85285 11.9455 2.92284 13.9982C2.53768 14.8484 2.70194 16.0236 3.30986 16.7673C3.49198 16.9901 3.55129 17.0111 4.12709 17.0562C4.76474 17.1062 5.28836 17.2403 5.66025 17.4489C5.94047 17.6061 6.00921 17.6025 6.3802 17.4105ZM32.9622 17.4513C33.3568 17.2402 33.8652 17.111 34.508 17.0584C35.0826 17.0115 35.1435 16.9898 35.3253 16.7674C35.9331 16.0238 36.0953 14.8573 35.7102 13.9982C35.2052 12.8715 34.1434 12.2647 33.0078 12.454C32.1648 12.5945 31.5017 13.0915 31.0904 13.8912C30.9127 14.2366 30.891 14.3635 30.8909 15.0541C30.8909 15.7167 30.9162 15.8784 31.0647 16.1666C31.3261 16.6734 31.8194 17.1876 32.2392 17.3909C32.6856 17.607 32.6733 17.6059 32.9622 17.4513ZM9.54383 12.1413C10.0444 11.8875 10.523 11.3792 10.7653 10.8442C11.0328 10.2537 11.05 9.27833 10.8027 8.72217C10.6041 8.27529 10.1011 7.70014 9.6962 7.45685C8.44767 6.70665 6.77785 7.27108 6.14195 8.65826C5.86674 9.25863 5.86139 10.2271 6.13002 10.8207C6.29825 11.1924 6.35758 11.2475 6.84165 11.481C7.1321 11.6212 7.52143 11.8818 7.70683 12.0601L8.04392 12.3844L8.6083 12.357C9.01338 12.3373 9.27744 12.2764 9.54383 12.1413ZM30.9168 12.058C31.1086 11.8813 31.5057 11.6205 31.7993 11.4786C32.2723 11.2501 32.3534 11.1784 32.5098 10.8504C32.6575 10.5406 32.6865 10.3598 32.6872 9.74362C32.6879 9.08734 32.6653 8.96251 32.4798 8.59747C32.2021 8.0512 31.7547 7.60202 31.2391 7.3518C30.8854 7.18021 30.7115 7.14651 30.1793 7.14651C29.6346 7.14651 29.4812 7.17767 29.1183 7.36213C27.3214 8.2754 27.1267 10.7575 28.7604 11.9254C29.2359 12.2653 29.5281 12.3605 30.1303 12.3715C30.5425 12.379 30.5888 12.3606 30.9168 12.058ZM14.6945 4.3576C14.8399 4.29475 15.061 4.11499 15.1859 3.95815C16.0421 2.88314 14.8318 1.35366 13.6279 1.9893C13.2233 2.20291 13.0051 2.55004 12.9656 3.04274C12.8866 4.02888 13.8175 4.73685 14.6945 4.3576Z" fill="#5CAC0E"/>
</svg>
