<svg width="42" height="41" viewBox="0 0 42 41" fill="none" xmlns="http://www.w3.org/2000/svg">
<path d="M35.8093 24.9439L34.0962 36.9313C33.947 37.969 33.8746 38.4889 33.6232 38.8809C33.4022 39.2246 33.0872 39.4975 32.7155 39.6671C32.2957 39.8589 31.7716 39.8589 30.7275 39.8589H25.1557M35.8093 24.9439H25.1557M35.8093 24.9439C38.5856 23.6569 40.0707 20.1796 40.0707 17.1327C40.0707 13.8599 37.8761 11.0601 34.7652 9.89462C34.4485 9.77555 34.1753 9.56348 33.9813 9.28626C33.7874 9.00903 33.6818 8.67963 33.6786 8.34132C33.6786 5.64596 31.2922 3.45984 28.3518 3.45984C27.8702 3.45984 27.4036 3.51737 26.9583 3.62817C26.0378 3.85616 25.0087 3.80502 24.216 3.31922C22.2529 2.12373 19.9967 1.49606 17.6982 1.50598C11.225 1.50598 5.97921 6.31501 5.97921 12.2491C5.97921 12.9991 5.48915 13.6852 4.7924 14.0751C2.94933 15.1 1.71777 16.9622 1.71777 19.0844C1.71777 21.8053 3.23485 24.2834 5.97921 24.9439M25.1557 39.8589V24.9439M25.1557 39.8589H16.6328M25.1557 24.9439H16.6328M5.97921 24.9439L7.69231 36.9313V36.9356C7.84146 37.9711 7.9139 38.491 8.16533 38.8809C8.38625 39.2246 8.70133 39.4975 9.07302 39.6671C9.49277 39.8589 10.0169 39.8589 11.061 39.8589H16.6328M5.97921 24.9439H16.6328M16.6328 39.8589V24.9439" stroke="#5CAC0E" stroke-width="2" stroke-linecap="round" stroke-linejoin="round"/>
</svg>
