<svg width="17" height="31" viewBox="0 0 17 31" fill="none" xmlns="http://www.w3.org/2000/svg">
<path d="M8.30421 30.1396C7.77436 30.1396 7.32991 29.9796 6.97086 29.6596C6.6118 29.3396 6.4329 28.9441 6.43415 28.473C6.43415 27.359 5.63373 26.4296 4.59203 26.0349C3.92572 25.7824 3.30864 25.4701 2.74078 25.098C1.68107 24.4035 0.823962 23.4313 0.16944 22.1813C-0.048734 21.7924 -0.0562144 21.3824 0.146999 20.9513C0.350212 20.5202 0.716121 20.208 1.24473 20.0146C1.68107 19.848 2.13301 19.8552 2.60052 20.0363C3.06804 20.2174 3.42646 20.5158 3.67581 20.9313C4.20566 21.7646 4.87576 22.3963 5.68612 22.8263C6.49648 23.2563 7.49385 23.4719 8.67822 23.473C9.9561 23.473 11.0389 23.2158 11.9265 22.7013C12.8142 22.1869 13.2586 21.3885 13.2599 20.3063C13.2599 19.3341 12.917 18.5635 12.2313 17.9946C11.5457 17.4258 9.9561 16.7796 7.46268 16.0563C4.78226 15.3063 2.94336 14.4102 1.946 13.368C0.948632 12.3258 0.449948 11.0552 0.449948 9.55632C0.449948 7.75076 1.10447 6.34799 2.41351 5.34799C3.15141 4.78429 3.89921 4.35741 4.65692 4.06734C5.62921 3.69511 6.43415 2.84742 6.43415 1.80632C6.43415 1.3341 6.61367 0.937987 6.97272 0.617987C7.33178 0.297987 7.77498 0.138543 8.30234 0.139654C8.83219 0.139654 9.27664 0.299654 9.63569 0.619654C9.99475 0.939654 10.1736 1.33521 10.1724 1.80632C10.1724 2.85773 10.9608 3.7152 11.9536 4.06138C12.4214 4.2245 12.8562 4.42448 13.258 4.66132C14.1307 5.17576 14.8476 5.80743 15.4086 6.55632C15.6891 6.91743 15.7439 7.32021 15.5731 7.76465C15.4023 8.2091 15.0514 8.52854 14.5203 8.72298C14.0839 8.88965 13.632 8.89687 13.1645 8.74465C12.697 8.59243 12.2606 8.32132 11.8555 7.93132C11.4503 7.54243 10.9747 7.2441 10.4286 7.03632C9.88254 6.82854 9.20496 6.7241 8.39584 6.72298C7.02446 6.72298 5.98035 6.9941 5.26349 7.53632C4.54663 8.07854 4.18883 8.75187 4.19007 9.55632C4.19007 10.473 4.65759 11.1952 5.59262 11.723C6.52765 12.2508 8.14837 12.8063 10.4548 13.3896C12.6054 13.9452 14.2342 14.8274 15.3413 16.0363C16.4483 17.2452 17.0012 18.6408 17 20.223C17 22.1952 16.3455 23.6952 15.0364 24.723C14.155 25.415 13.1323 25.9307 11.9683 26.2701C10.9617 26.5636 10.1743 27.4245 10.1743 28.473C10.1743 28.9452 9.99475 29.3413 9.63569 29.6613C9.27664 29.9813 8.83281 30.1408 8.30421 30.1396Z" fill="#5CAC0E"/>
</svg>
