<svg width="20" height="38" viewBox="0 0 20 38" fill="none" xmlns="http://www.w3.org/2000/svg">
<path d="M4.96871 12.0212C4.96882 13.3533 5.59057 14.4086 6.76368 15.1516C7.87058 15.8526 9.73603 16.5626 12.3102 17.2932C14.6349 17.9673 16.3511 19.0241 17.5043 20.437C18.6636 21.8574 19.2409 23.4896 19.2395 25.3538V25.3542C19.2395 27.7172 18.5445 29.4385 17.2215 30.604C15.8445 31.8171 14.1322 32.5799 12.0635 32.8802L11.6354 32.9423V33.375V35.6667C11.6354 36.1308 11.4836 36.4968 11.1818 36.7985C10.8801 37.1003 10.5152 37.2511 10.0532 37.25H10.052C9.58795 37.25 9.22197 37.0982 8.92018 36.7965C8.61846 36.4947 8.46762 36.1298 8.46871 35.6679V35.6667V33.2708V32.8698L8.07718 32.7827C6.57618 32.4492 5.26992 31.8683 4.15032 31.0451C3.0483 30.2348 2.14264 29.0907 1.44264 27.5906L1.4428 27.5906L1.43676 27.5785C1.2643 27.2336 1.25078 26.8742 1.42552 26.4582C1.59585 26.0528 1.8988 25.7527 2.37729 25.5563L2.37731 25.5564L2.38442 25.5533C2.73387 25.4036 3.09363 25.4034 3.49856 25.5794C3.91198 25.7591 4.2281 26.0513 4.45488 26.4754L4.45475 26.4754L4.46078 26.4861C5.08781 27.5926 5.89227 28.4501 6.87959 29.038C7.87702 29.6318 9.08161 29.9152 10.4682 29.9167H10.4687C11.9689 29.9167 13.2746 29.5771 14.36 28.8713C15.5134 28.1213 16.0713 26.9516 16.0729 25.4589V25.4583C16.0729 24.1292 15.6501 23.0242 14.7677 22.2028C14.3259 21.7915 13.6332 21.3851 12.7335 20.9748C11.8247 20.5603 10.6682 20.1257 9.2693 19.6704L9.26931 19.6704L9.26431 19.6688C6.30422 18.7395 4.36697 17.6544 3.34914 16.461C2.32268 15.2574 1.80204 13.7876 1.80204 12.0208C1.80204 9.88162 2.48721 8.27811 3.81494 7.14005C5.21634 5.93885 6.61897 5.2816 8.02517 5.12181L8.46871 5.07141V4.62501V2.33334C8.46871 1.86924 8.62048 1.50326 8.92226 1.20148C9.22423 0.899511 9.58857 0.748918 10.0488 0.750007H10.05C10.5141 0.750007 10.88 0.901778 11.1818 1.20356C11.4835 1.50528 11.6344 1.8702 11.6333 2.33216V2.33334V4.62501V5.05225L12.0553 5.11889C13.3144 5.31769 14.3905 5.72092 15.295 6.31912C16.2137 6.92682 16.964 7.66965 17.5508 8.54848L17.5507 8.54852L17.5555 8.55545C17.7705 8.86599 17.8199 9.20174 17.6769 9.61924C17.5378 10.0254 17.2589 10.3228 16.7871 10.5167L16.787 10.5166L16.7801 10.5196C16.4172 10.6751 16.0458 10.6855 15.6382 10.5366C15.2052 10.3784 14.7833 10.0906 14.3752 9.64989L14.3747 9.64937C13.8758 9.11206 13.288 8.69832 12.615 8.411C11.9268 8.11717 11.1006 7.98063 10.1549 7.97917H10.1541C8.56087 7.97917 7.26353 8.33169 6.34101 9.11462C5.43572 9.88294 4.9672 10.8618 4.96871 12.0212ZM4.96871 12.0212C4.96871 12.0211 4.96871 12.021 4.96871 12.0208H5.46871L4.96871 12.0215C4.96871 12.0214 4.96871 12.0213 4.96871 12.0212ZM12.1354 33.375C14.2882 33.0625 16.0937 32.2639 17.552 30.9792C19.0104 29.6945 19.7395 27.8195 19.7395 25.3542C19.7409 23.3764 19.125 21.632 17.8916 20.1208C16.6583 18.6097 14.8437 17.507 12.4479 16.8125L12.1354 33.375ZM12.1354 33.375V35.6667M12.1354 33.375V35.6667M12.1354 35.6667C12.1354 36.257 11.9354 36.7521 11.5354 37.1521M12.1354 35.6667L11.5354 37.1521M11.5354 37.1521C11.1354 37.5521 10.6409 37.7514 10.052 37.75L11.5354 37.1521Z" fill="#FF6700" stroke="#FFC197"/>
</svg>
