<svg width="39" height="39" viewBox="0 0 39 39" fill="none" xmlns="http://www.w3.org/2000/svg">
<path d="M28.3959 2.59124L28.3972 2.59252L28.4674 2.66144V2.66399C28.7188 2.91161 28.9472 3.17454 29.1527 3.4515C30.7065 3.72585 32.1369 4.47548 33.2468 5.59705C34.1482 6.49257 34.8127 7.59836 35.1803 8.81473C35.6933 9.11978 36.1783 9.49375 36.625 9.94048L36.7015 10.0171C37.8244 11.1403 38.5542 12.5963 38.7824 14.1682C39.0105 15.74 38.7247 17.3435 37.9675 18.7396C33.561 26.8767 26.8826 33.5558 18.7464 37.9628C17.3511 38.7229 15.7472 39.0106 14.1747 38.7828C12.6022 38.5551 11.1458 37.824 10.0235 36.6992L9.94692 36.6226C9.74802 36.4236 9.56054 36.2135 9.38538 35.9934C7.73596 35.7595 6.20725 34.9957 5.02966 33.8172C3.63339 32.4301 2.82567 30.5581 2.77458 28.5905C2.73587 28.5535 2.69758 28.5161 2.65972 28.4782L2.58315 28.4016C-0.764367 25.055 0.043478 19.4199 4.21798 17.1621C9.70129 14.1948 14.2013 9.69384 17.1677 4.20966V4.20838C19.4228 0.0564083 25.0573 -0.774497 28.3972 2.59252M19.4126 5.4273C16.2096 11.3462 11.3518 16.2036 5.43294 19.4059C3.27996 20.5712 2.52572 23.1456 3.44204 25.221C4.07977 23.7896 5.14187 22.5889 6.48454 21.7812C12.5083 18.1308 17.5621 13.0765 21.2121 7.05209C22.2033 5.40403 23.7783 4.1893 25.624 3.64934C25.1007 3.35237 24.5235 3.16271 23.926 3.09145C23.3286 3.02018 22.723 3.06874 22.1445 3.23428C21.5661 3.39982 21.0264 3.67902 20.5572 4.05557C20.0879 4.43211 19.6983 4.89844 19.4113 5.4273M27.2984 12.8429C23.9861 18.9605 18.965 23.9817 12.8478 27.2938C10.0618 28.8024 9.51045 32.5753 11.7515 34.8166L11.8281 34.8932C12.5604 35.6287 13.5114 36.1071 14.5384 36.2567C15.5655 36.4063 16.6134 36.2189 17.5251 35.7228L17.5289 35.7202C25.2305 31.5486 31.552 25.226 35.7227 17.5233L35.7239 17.522C36.2187 16.6096 36.4055 15.5618 36.2565 14.5346C36.1075 13.5075 35.6306 12.5559 34.897 11.8218L34.8204 11.7452C32.5793 9.50396 28.8068 10.0553 27.2984 12.8429ZM25.5193 9.24103C25.6385 9.12722 25.7338 8.99072 25.7996 8.83955C25.8653 8.68838 25.9002 8.52559 25.9021 8.36076C25.904 8.19593 25.873 8.03237 25.8108 7.87971C25.7486 7.72705 25.6565 7.58836 25.54 7.47179C25.4234 7.35523 25.2847 7.26315 25.1321 7.20095C24.9794 7.13876 24.8159 7.10771 24.6511 7.10963C24.4863 7.11156 24.3235 7.14641 24.1723 7.21215C24.0212 7.27789 23.8847 7.37318 23.7709 7.49243C22.7091 8.55308 22.7155 9.70052 22.7193 10.4166V10.46C22.7231 11.1377 22.7014 11.3585 22.3926 11.6674C22.0837 11.9763 21.863 11.998 21.1853 11.9941H21.1432C20.4259 11.9903 19.2799 11.9839 18.2194 13.0458C17.1575 14.1065 17.1639 15.2539 17.1677 15.97V16.0121C17.1703 16.6898 17.1499 16.9106 16.841 17.2195C16.5322 17.5284 16.3114 17.5488 15.6337 17.5463H15.5916C14.8744 17.5424 13.7283 17.536 12.6678 18.598C11.606 19.6586 11.6124 20.8061 11.6162 21.5221V21.5642C11.62 22.2407 11.5983 22.4615 11.2908 22.7691C10.9845 23.0729 10.7586 23.0958 10.0784 23.092H10.0324C9.31774 23.0882 8.1717 23.0818 7.11627 24.1373C6.99703 24.2512 6.90175 24.3877 6.83602 24.5388C6.77028 24.69 6.73543 24.8528 6.73351 25.0176C6.73159 25.1824 6.76263 25.346 6.82482 25.4987C6.88701 25.6513 6.97908 25.79 7.09563 25.9066C7.21218 26.0231 7.35086 26.1152 7.5035 26.1774C7.65615 26.2396 7.81969 26.2707 7.9845 26.2687C8.14932 26.2668 8.31209 26.232 8.46324 26.1662C8.6144 26.1005 8.75089 26.0052 8.86469 25.8859C9.16587 25.5847 9.38283 25.5617 10.0669 25.5656H10.1116C10.8262 25.5694 11.9735 25.5758 13.0341 24.5241L13.0379 24.5202C14.0997 23.4596 14.0933 22.3122 14.0895 21.5961V21.554C14.0857 20.8763 14.1074 20.6554 14.4162 20.3466C14.7251 20.0377 14.9459 20.016 15.6235 20.0198H15.6656C16.3829 20.0237 17.5289 20.03 18.5895 18.9681C19.6513 17.9075 19.6449 16.76 19.6411 16.044V16.0019C19.6372 15.3241 19.6589 15.1033 19.9678 14.7944C20.2766 14.4856 20.4974 14.4651 21.1738 14.4677H21.2172C21.9344 14.4715 23.0805 14.4779 24.141 13.416C25.2028 12.3553 25.1964 11.2079 25.1926 10.4919V10.4472C25.1888 9.76944 25.2105 9.54991 25.5193 9.24103Z" fill="#5CAC0E"/>
</svg>
