<svg width="118" height="93" viewBox="0 0 118 93" fill="none" xmlns="http://www.w3.org/2000/svg">
<path d="M6.08 81.14C5.14667 81.14 4.30667 80.98 3.56 80.66C2.81333 80.3267 2.22667 79.86 1.8 79.26C1.37333 78.66 1.16 77.96 1.16 77.16H3.6C3.65333 77.76 3.88667 78.2533 4.3 78.64C4.72667 79.0267 5.32 79.22 6.08 79.22C6.86667 79.22 7.48 79.0333 7.92 78.66C8.36 78.2733 8.58 77.78 8.58 77.18C8.58 76.7133 8.44 76.3333 8.16 76.04C7.89333 75.7467 7.55333 75.52 7.14 75.36C6.74 75.2 6.18 75.0267 5.46 74.84C4.55333 74.6 3.81333 74.36 3.24 74.12C2.68 73.8667 2.2 73.48 1.8 72.96C1.4 72.44 1.2 71.7467 1.2 70.88C1.2 70.08 1.4 69.38 1.8 68.78C2.2 68.18 2.76 67.72 3.48 67.4C4.2 67.08 5.03333 66.92 5.98 66.92C7.32667 66.92 8.42667 67.26 9.28 67.94C10.1467 68.6067 10.6267 69.5267 10.72 70.7H8.2C8.16 70.1933 7.92 69.76 7.48 69.4C7.04 69.04 6.46 68.86 5.74 68.86C5.08667 68.86 4.55333 69.0267 4.14 69.36C3.72667 69.6933 3.52 70.1733 3.52 70.8C3.52 71.2267 3.64667 71.58 3.9 71.86C4.16667 72.1267 4.5 72.34 4.9 72.5C5.3 72.66 5.84667 72.8333 6.54 73.02C7.46 73.2733 8.20667 73.5267 8.78 73.78C9.36667 74.0333 9.86 74.4267 10.26 74.96C10.6733 75.48 10.88 76.18 10.88 77.06C10.88 77.7667 10.6867 78.4333 10.3 79.06C9.92667 79.6867 9.37333 80.1933 8.64 80.58C7.92 80.9533 7.06667 81.14 6.08 81.14ZM20.7903 81L17.5903 75.44H15.8503V81H13.5703V67.1H18.3703C19.437 67.1 20.337 67.2867 21.0703 67.66C21.817 68.0333 22.3703 68.5333 22.7303 69.16C23.1036 69.7867 23.2903 70.4867 23.2903 71.26C23.2903 72.1667 23.0236 72.9933 22.4903 73.74C21.9703 74.4733 21.1636 74.9733 20.0703 75.24L23.5103 81H20.7903ZM15.8503 73.62H18.3703C19.2236 73.62 19.8636 73.4067 20.2903 72.98C20.7303 72.5533 20.9503 71.98 20.9503 71.26C20.9503 70.54 20.737 69.98 20.3103 69.58C19.8836 69.1667 19.237 68.96 18.3703 68.96H15.8503V73.62ZM27.127 81.14C26.7137 81.14 26.367 81 26.087 80.72C25.807 80.44 25.667 80.0933 25.667 79.68C25.667 79.2667 25.807 78.92 26.087 78.64C26.367 78.36 26.7137 78.22 27.127 78.22C27.527 78.22 27.867 78.36 28.147 78.64C28.427 78.92 28.567 79.2667 28.567 79.68C28.567 80.0933 28.427 80.44 28.147 80.72C27.867 81 27.527 81.14 27.127 81.14ZM35.4666 74.02C35.4666 72.66 35.7799 71.44 36.4066 70.36C37.0466 69.28 37.9066 68.44 38.9866 67.84C40.0799 67.2267 41.2732 66.92 42.5666 66.92C44.0466 66.92 45.3599 67.2867 46.5066 68.02C47.6666 68.74 48.5066 69.7667 49.0266 71.1H46.2866C45.9266 70.3667 45.4266 69.82 44.7866 69.46C44.1466 69.1 43.4066 68.92 42.5666 68.92C41.6466 68.92 40.8266 69.1267 40.1066 69.54C39.3866 69.9533 38.8199 70.5467 38.4066 71.32C38.0066 72.0933 37.8066 72.9933 37.8066 74.02C37.8066 75.0467 38.0066 75.9467 38.4066 76.72C38.8199 77.4933 39.3866 78.0933 40.1066 78.52C40.8266 78.9333 41.6466 79.14 42.5666 79.14C43.4066 79.14 44.1466 78.96 44.7866 78.6C45.4266 78.24 45.9266 77.6933 46.2866 76.96H49.0266C48.5066 78.2933 47.6666 79.32 46.5066 80.04C45.3599 80.76 44.0466 81.12 42.5666 81.12C41.2599 81.12 40.0666 80.82 38.9866 80.22C37.9066 79.6067 37.0466 78.76 36.4066 77.68C35.7799 76.6 35.4666 75.38 35.4666 74.02ZM60.0753 78.16H54.2553L53.2553 81H50.8753L55.8553 67.08H58.4953L63.4753 81H61.0753L60.0753 78.16ZM59.4353 76.3L57.1753 69.84L54.8953 76.3H59.4353ZM80.2806 67.1V81H78.0006V71.48L73.7606 81H72.1806L67.9206 71.48V81H65.6406V67.1H68.1006L72.9806 78L77.8406 67.1H80.2806ZM85.5573 68.94V73.02H90.3573V74.88H85.5573V79.14H90.9573V81H83.2773V67.08H90.9573V68.94H85.5573ZM96.0456 79.16H100.746V81H93.7656V67.1H96.0456V79.16ZM108.992 81.14C107.699 81.14 106.506 80.84 105.412 80.24C104.332 79.6267 103.472 78.78 102.832 77.7C102.206 76.6067 101.892 75.38 101.892 74.02C101.892 72.66 102.206 71.44 102.832 70.36C103.472 69.28 104.332 68.44 105.412 67.84C106.506 67.2267 107.699 66.92 108.992 66.92C110.299 66.92 111.492 67.2267 112.572 67.84C113.666 68.44 114.526 69.28 115.152 70.36C115.779 71.44 116.092 72.66 116.092 74.02C116.092 75.38 115.779 76.6067 115.152 77.7C114.526 78.78 113.666 79.6267 112.572 80.24C111.492 80.84 110.299 81.14 108.992 81.14ZM108.992 79.16C109.912 79.16 110.732 78.9533 111.452 78.54C112.172 78.1133 112.732 77.5133 113.132 76.74C113.546 75.9533 113.752 75.0467 113.752 74.02C113.752 72.9933 113.546 72.0933 113.132 71.32C112.732 70.5467 112.172 69.9533 111.452 69.54C110.732 69.1267 109.912 68.92 108.992 68.92C108.072 68.92 107.252 69.1267 106.532 69.54C105.812 69.9533 105.246 70.5467 104.832 71.32C104.432 72.0933 104.232 72.9933 104.232 74.02C104.232 75.0467 104.432 75.9533 104.832 76.74C105.246 77.5133 105.812 78.1133 106.532 78.54C107.252 78.9533 108.072 79.16 108.992 79.16ZM108.992 64.58L106.132 66.3V64.52L108.992 62.86L111.852 64.52V66.3L108.992 64.58Z" fill="#D9D9D9"/>
<g clip-path="url(#clip0_62278_114)">
<path d="M46.527 58.3497C46.527 58.2534 46.33 58.1745 46.089 58.1745C45.8481 58.1745 45.6509 58.0956 45.6509 57.9993C45.6509 57.9029 45.5333 57.8241 45.3895 57.8241C45.2456 57.8241 44.9198 57.6466 44.6654 57.4298C43.299 56.2651 42.7811 55.6271 42.2251 54.4238C41.6884 53.2621 41.6212 52.9535 41.6236 51.6591C41.6256 50.1249 41.8057 49.4004 42.4532 48.307C42.67 47.9409 42.8475 47.6044 42.8475 47.5591C42.8475 47.4356 44.3985 45.9092 44.5242 45.9092C44.5842 45.9092 44.8486 45.7558 45.1119 45.5683C45.9792 44.9507 47.0661 44.6879 48.7635 44.6852C49.6562 44.6838 50.5235 44.752 50.6909 44.8364C50.8581 44.921 51.2854 45.1143 51.6402 45.2659C51.995 45.4175 52.4603 45.6834 52.6742 45.8568C53.5244 46.5457 54.7623 47.8858 54.7623 48.1171C54.7623 48.2518 54.8412 48.3622 54.9375 48.3622C55.0339 48.3622 55.1128 48.5592 55.1128 48.8002C55.1128 49.0411 55.1803 49.2382 55.263 49.2382C55.4183 49.2382 55.7048 51.0939 55.6687 51.8665C55.6208 52.8901 55.4164 53.9692 55.2703 53.9692C55.1837 53.9692 55.1127 54.1662 55.1127 54.4072C55.1127 54.6481 55.0339 54.8453 54.9375 54.8453C54.8412 54.8453 54.7623 54.9732 54.7623 55.1298C54.7623 55.485 52.6874 57.5607 52.1673 57.7258C51.9562 57.7927 51.7836 57.9211 51.7836 58.011C51.7836 58.1008 51.547 58.1745 51.2579 58.1745C50.9688 58.1745 50.7323 58.2534 50.7323 58.3497C50.7323 58.4568 49.9146 58.525 48.6296 58.525C47.3447 58.525 46.527 58.4568 46.527 58.3497ZM51.2068 56.6557C52.1263 56.1424 53.2351 55.0706 53.6233 54.32C54.6308 52.3717 54.6308 50.836 53.6233 48.8877C53.3143 48.2903 52.0544 46.9605 51.7973 46.9605C51.6934 46.9605 51.6084 46.8817 51.6084 46.7853C51.6084 46.689 51.4506 46.6101 51.258 46.6101C51.0652 46.6101 50.9075 46.5401 50.9075 46.4547C50.9075 46.2982 50.3463 46.1478 49.083 45.9657C48.3536 45.8606 46.5271 46.2159 46.5271 46.4628C46.5271 46.5439 46.3693 46.61 46.1766 46.61C45.9839 46.61 45.8262 46.6889 45.8262 46.7853C45.8262 46.8816 45.6988 46.9605 45.543 46.9605C45.206 46.9605 43.8988 48.3011 43.8988 48.6467C43.8988 48.7794 43.8199 48.8879 43.7236 48.8879C43.6272 48.8879 43.5483 49.0391 43.5483 49.2237C43.5483 49.4085 43.4498 49.5924 43.3293 49.6326C43.1721 49.685 43.1103 50.241 43.1103 51.6038C43.1103 52.9666 43.1721 53.5226 43.3293 53.575C43.4497 53.6151 43.5483 53.8019 43.5483 53.9901C43.5483 54.1783 43.7077 54.5068 43.9025 54.7202C44.0974 54.9336 44.4738 55.3538 44.7392 55.6539C45.2834 56.2696 46.4868 56.9428 47.4031 57.1443C48.526 57.3912 50.2967 57.1642 51.2068 56.6557ZM47.2463 53.9558C46.9192 53.7563 46.5644 53.5004 46.4579 53.387C45.9726 52.8703 45.6145 50.9906 46.0014 50.9906C46.0977 50.9906 46.1766 50.7899 46.1766 50.5445C46.1766 50.0583 46.8801 49.2384 47.2972 49.2384C47.4405 49.2384 47.6064 49.1595 47.666 49.0631C47.9136 48.6625 50.2007 49.0176 50.2053 49.4574C50.206 49.5297 50.2911 49.5887 50.3944 49.5887C50.6696 49.5887 51.0828 50.0482 51.0828 50.3543C51.0828 50.5002 51.1616 50.6681 51.258 50.7276C51.4601 50.8526 51.5 52.5674 51.3007 52.5674C51.2278 52.5674 51.0699 52.7896 50.9498 53.0611C50.4489 54.1927 48.4336 54.6796 47.2463 53.9558ZM49.5763 52.6972C49.9831 52.2904 50.0574 51.5363 49.7537 50.8962C49.4958 50.3526 49.3928 50.2897 48.7616 50.2897C47.4791 50.2897 46.7984 51.5956 47.6223 52.4755C48.065 52.9483 49.1968 53.0767 49.5763 52.6972ZM62.8224 58.3497C62.8224 58.2534 62.7167 58.1745 62.5877 58.1745C62.1259 58.1745 61.9463 57.2931 61.9463 55.0267C61.9463 53.7863 61.8984 52.6467 61.84 52.4943C61.7504 52.261 61.3689 52.2171 59.4292 52.2171H57.1247L57.0735 50.7715C57.0453 49.9765 56.9473 49.2997 56.856 49.2676C56.7646 49.2354 56.6897 49.0701 56.6897 48.9003C56.6897 48.5379 56.1974 47.4996 55.8678 47.167C55.7417 47.0397 55.6384 46.8676 55.6384 46.7846C55.6384 46.5584 53.7789 44.6827 53.5547 44.6827C53.448 44.6827 53.3606 44.6038 53.3606 44.5075C53.3606 44.4111 53.2424 44.3322 53.0978 44.3322C52.9531 44.3322 52.8349 44.2534 52.8349 44.157C52.8349 44.0606 52.6772 43.9818 52.4845 43.9818C52.2918 43.9818 52.1341 43.9029 52.1341 43.8065C52.1341 43.7102 51.9041 43.6313 51.623 43.6313C51.3419 43.6313 51.0791 43.5328 51.0389 43.4123C50.9364 43.1046 46.3211 43.1103 46.2184 43.4183C46.1793 43.5355 46.012 43.6313 45.8465 43.6313C45.4666 43.6313 44.6028 44.0262 44.601 44.2008C44.6003 44.2731 44.4822 44.3321 44.3388 44.3321C44.028 44.3321 43.5205 44.7154 42.6786 45.5861C41.5752 46.7272 41.2705 47.118 41.2705 47.3922C41.2705 47.5402 41.1916 47.6612 41.0953 47.6612C40.9989 47.6612 40.92 47.8583 40.92 48.0993C40.92 48.3402 40.8412 48.5373 40.7448 48.5373C40.6485 48.5373 40.5696 48.7739 40.5696 49.063C40.5696 49.3521 40.4907 49.5886 40.3944 49.5886C40.293 49.5886 40.2191 50.1467 40.2191 50.9124V52.2361L39.3868 52.1827C38.8562 52.1487 38.5694 52.0531 38.5954 51.9191C38.6179 51.8034 38.6403 47.8053 38.6455 43.0342C38.6554 33.9669 38.6554 33.9802 37.8975 33.2746C37.7289 33.1177 37.5909 32.9108 37.5909 32.8147C37.5909 32.5505 36.3777 31.7729 35.4883 31.467C34.8971 31.2636 33.9435 31.1951 31.6773 31.1932L28.6548 31.1912V30.4904V29.7895H31.8087C33.7945 29.7895 34.9627 29.8544 34.9627 29.9647C34.9627 30.0611 35.278 30.1399 35.6635 30.1399C36.049 30.1399 36.3644 30.2188 36.3644 30.3152C36.3644 30.4115 36.5025 30.4914 36.671 30.4928C37.0969 30.4967 38.3866 31.562 39.3049 32.6698C39.5942 33.0187 40.2192 34.4744 40.2192 34.7992C40.2192 35.013 41.7712 35.0423 51.039 35.0036L61.8587 34.9585L61.9038 24.1388L61.9489 13.319H62.6484H63.348V32.1651V51.0112L64.0927 50.9573L64.8373 50.9035L64.887 48.8076C64.9144 47.6548 65.0052 46.6692 65.0888 46.6174C65.1724 46.5655 67.141 46.5454 69.4634 46.5728L73.6858 46.6227V49.4201V52.2176H68.5169H63.348V53.3565C63.348 54.4487 63.3658 54.4954 63.7778 54.4954C64.5878 54.4954 65.4007 54.974 65.7733 55.6702C66.0156 56.1229 66.0452 57.4741 65.8129 57.4741C65.7231 57.4741 65.5994 57.6319 65.5382 57.8246C65.477 58.0173 65.314 58.175 65.176 58.175C65.0379 58.175 64.925 58.2539 64.925 58.3502C64.925 58.4476 64.4577 58.5255 63.8736 58.5255C63.2896 58.5255 62.8224 58.4471 62.8224 58.3497ZM38.5108 11.976C38.3636 11.9166 38.2918 11.4676 38.2918 10.6071V9.32659L38.9962 9.04476C39.3836 8.88979 39.8173 8.7629 39.9599 8.7629C40.1025 8.7629 40.2192 8.68403 40.2192 8.58767C40.2192 8.49131 40.4557 8.41244 40.7448 8.41244C41.0339 8.41244 41.2705 8.33357 41.2705 8.23721C41.2705 8.14085 41.4676 8.06198 41.7085 8.06198C41.9495 8.06198 42.1466 7.98311 42.1466 7.88675C42.1466 7.7904 42.3831 7.71152 42.6722 7.71152C42.9613 7.71152 43.1979 7.63265 43.1979 7.53629C43.1979 7.43994 43.4344 7.36106 43.7235 7.36106C44.0126 7.36106 44.2492 7.28219 44.2492 7.18583C44.2492 7.08948 44.4417 7.0106 44.6769 7.0106C44.9121 7.0106 45.1533 6.93173 45.2129 6.83537C45.2725 6.73902 45.4545 6.66034 45.6175 6.66074C45.892 6.66122 47.7986 5.95291 48.4959 5.59144C48.6632 5.50462 48.9589 5.4337 49.1529 5.4337C49.347 5.4337 49.5058 5.35482 49.5058 5.25847C49.5058 5.16211 49.7423 5.08324 50.0314 5.08324C50.3205 5.08324 50.5571 5.00436 50.5571 4.90801C50.5571 4.81165 50.7496 4.73278 50.9848 4.73278C51.22 4.73278 51.4612 4.6539 51.5208 4.55755C51.5804 4.46119 51.8215 4.38232 52.0568 4.38232C52.292 4.38232 52.4845 4.30345 52.4845 4.20709C52.4845 4.11073 52.6208 4.03186 52.7874 4.03186C53.0963 4.03186 55.3034 3.26762 55.855 2.96966C56.0223 2.87926 56.3181 2.80535 56.5121 2.80535C56.7062 2.80535 56.8649 2.72648 56.8649 2.63012C56.8649 2.53377 57.062 2.45489 57.303 2.45489C57.5439 2.45489 57.741 2.37602 57.741 2.27966C57.741 2.18331 57.9776 2.10443 58.2667 2.10443C58.5558 2.10443 58.7923 2.02556 58.7923 1.9292C58.7923 1.83285 59.0157 1.75398 59.2888 1.75398C59.5618 1.75398 59.8393 1.69994 59.9053 1.63398C60.3854 1.15388 62.8315 0.817808 62.9635 1.2138C62.9983 1.31811 63.2568 1.40354 63.5378 1.40354C63.8189 1.40354 64.0489 1.48241 64.0489 1.57877C64.0489 1.67512 64.2854 1.754 64.5745 1.754C64.8637 1.754 65.1002 1.83287 65.1002 1.92922C65.1002 2.02558 65.3762 2.10445 65.7135 2.10445C66.0508 2.10445 66.3267 2.18333 66.3267 2.27968C66.3267 2.37604 66.5193 2.45491 66.7544 2.45491C66.9897 2.45491 67.2309 2.53379 67.2904 2.63014C67.35 2.7265 67.5846 2.80537 67.8118 2.80537C68.039 2.80537 68.2512 2.86458 68.2833 2.9367C68.3531 3.09345 72.146 4.38226 72.5376 4.38226C72.6874 4.38226 72.8098 4.46113 72.8098 4.55749C72.8098 4.65385 73.0464 4.73272 73.3355 4.73272C73.6246 4.73272 73.8611 4.81159 73.8611 4.90795C73.8611 5.0043 74.0977 5.08318 74.3868 5.08318C74.6759 5.08318 74.9124 5.16205 74.9124 5.25841C74.9124 5.35476 75.1443 5.43364 75.4277 5.43364C75.7112 5.43364 75.986 5.50297 76.0384 5.58801C76.0909 5.67284 76.3124 5.7833 76.5306 5.83333C76.7489 5.88339 77.36 6.08993 77.8887 6.2923C78.4174 6.49467 78.989 6.66022 79.159 6.66022C79.3291 6.66022 79.4681 6.7391 79.4681 6.83545C79.4681 6.93181 79.7047 7.01068 79.9938 7.01068C80.2829 7.01068 80.5194 7.08956 80.5194 7.18591C80.5194 7.28227 80.756 7.36114 81.0451 7.36114C81.3342 7.36114 81.5707 7.44002 81.5707 7.53637C81.5707 7.63273 81.8467 7.7116 82.184 7.7116C82.5213 7.7116 82.7973 7.79047 82.7973 7.88683C82.7973 7.98319 83.0338 8.06206 83.3229 8.06206C83.612 8.06206 83.8486 8.14093 83.8486 8.23729C83.8486 8.33365 84.0411 8.41252 84.2763 8.41252C84.5115 8.41252 84.7473 8.48265 84.8003 8.56828C84.8533 8.65391 85.1142 8.77496 85.3801 8.83714C86.7744 9.16317 86.8273 9.22505 86.8273 10.5302C86.8273 11.5364 86.7729 11.7585 86.4884 11.9107C86.0463 12.1473 81.3004 12.1473 80.8584 11.9107C80.5731 11.7581 80.5194 11.5362 80.5194 10.5089V9.28857H79.9938H79.4681V10.5089C79.4681 11.5362 79.4145 11.758 79.1292 11.9107C78.6136 12.1866 60.1558 12.1589 59.8787 11.8819C59.7559 11.7591 59.6684 11.1707 59.6684 10.469V9.26644L59.099 9.32127L58.5295 9.3761L58.4768 10.5978C58.4465 11.3018 58.3352 11.8761 58.214 11.9531C57.9051 12.1493 46.315 12.1185 46.0014 11.9207C45.8268 11.8104 45.7092 11.3561 45.651 10.5654C45.5669 9.42323 45.5443 9.3739 45.0815 9.32065L44.5997 9.26522V10.4753C44.5997 11.6019 44.5689 11.6993 44.1534 11.8887C43.7134 12.0891 38.973 12.1626 38.5108 11.976Z" fill="#D9D9D9"/>
</g>
<defs>
<clipPath id="clip0_62278_114">
<rect width="59.6019" height="59.6019" fill="white" transform="translate(28.0093)"/>
</clipPath>
</defs>
</svg>
