<svg width="34" height="30" viewBox="0 0 34 30" fill="none" xmlns="http://www.w3.org/2000/svg">
<path d="M22.4993 21.7818L17.4631 17.2656C17.279 17.1006 17.0615 17.0705 16.9444 17.0705C16.8273 17.0705 16.6098 17.1006 16.4257 17.2656L11.3727 21.7968C10.1359 22.9059 9.24894 25.1832 10.4872 26.2906L13.163 28.6836C14.1042 29.5265 15.38 30 16.7102 30C18.0403 30 19.3161 29.5265 20.2573 28.6836L23.2702 25.9891C24.3962 24.9821 23.624 22.7903 22.4993 21.7818ZM11.3727 8.20321L16.4257 12.7344C16.5596 12.8544 16.7604 12.9295 16.9444 12.9295C17.1285 12.9295 17.3292 12.8544 17.4631 12.7344L22.4659 8.24822C23.5941 7.19379 24.3999 4.97635 23.2489 3.94694L20.3075 1.31639C19.3663 0.473463 18.0905 0 16.7604 0C15.4302 0 14.1544 0.473463 13.2132 1.31639L10.5 3.74289C9.27483 4.83858 10.149 7.10587 11.3727 8.20321Z" fill="#5CAC0E"/>
<path d="M31.9699 11.7739L29.7717 9.79397C28.7633 8.88567 27.4542 8.38304 26.0971 8.38304C25.1936 8.38304 24.29 8.71312 23.671 9.29828L18.6515 13.7995C18.183 14.2196 17.5639 14.4296 16.9448 14.4296C16.3073 14.4216 15.6972 14.1963 15.2382 13.7995L10.1852 9.25326C9.5494 8.68311 8.67935 8.35303 7.7591 8.35303C6.17574 8.35303 4.64848 8.93941 3.47195 9.99905L1.46798 11.8039C0.527984 12.6479 0 13.792 0 14.9848C0 16.1776 0.527984 17.3216 1.46798 18.1656L3.45952 19.9593C4.64405 21.0262 6.1817 21.6165 7.77584 21.6165C8.67935 21.6165 9.5494 21.2864 10.2019 20.7163L15.2549 16.1851C15.7234 15.765 16.3425 15.5549 16.9616 15.5549C17.5806 15.5549 18.1997 15.765 18.6682 16.1851L23.7044 20.7013C24.3402 21.2714 25.2103 21.6015 26.1305 21.6015C27.4877 21.6015 28.7968 21.0989 29.8052 20.1906L32.0034 18.2106C32.9473 17.3515 33.4737 16.1922 33.4674 14.9861C33.4611 13.78 32.9227 12.6252 31.9699 11.7739Z" fill="#5CAC0E"/>
</svg>
