<svg width="42" height="42" viewBox="0 0 42 42" fill="none" xmlns="http://www.w3.org/2000/svg">
<path d="M28.1877 30.4169L21.9168 24.146C21.6877 23.9169 21.4168 23.8752 21.271 23.8752C21.1252 23.8752 20.8543 23.9169 20.6252 24.146L14.3335 30.4377C13.6252 31.146 12.521 32.2919 8.8335 32.2919L16.5627 40.0002C17.7345 41.1706 19.3231 41.828 20.9793 41.828C22.6356 41.828 24.2241 41.1706 25.396 40.0002L33.146 32.271C31.2502 32.271 29.6668 31.896 28.1877 30.4169ZM14.3335 11.5627L20.6252 17.8544C20.7918 18.021 21.0418 18.1252 21.271 18.1252C21.5002 18.1252 21.7502 18.021 21.9168 17.8544L28.146 11.6252C29.6252 10.0835 31.3127 9.72936 33.2085 9.72936L25.4585 2.0002C24.2866 0.829777 22.6981 0.172363 21.0418 0.172363C19.3856 0.172363 17.797 0.829777 16.6252 2.0002L8.896 9.70853C12.5627 9.70853 13.6877 10.9169 14.3335 11.5627Z" fill="#FF6700"/>
<path d="M39.9794 16.521L35.2919 11.8127H32.6669C31.5419 11.8127 30.4169 12.271 29.646 13.0835L23.396 19.3335C22.8127 19.9168 22.0419 20.2085 21.271 20.2085C20.4773 20.1973 19.7175 19.8845 19.146 19.3335L12.8544 13.021C12.0627 12.2293 10.9794 11.771 9.83353 11.771H6.77103L2.0002 16.5627C0.829777 17.7345 0.172363 19.3231 0.172363 20.9793C0.172363 22.6356 0.829777 24.2241 2.0002 25.396L6.77103 30.1877H9.85436C10.9794 30.1877 12.0627 29.7293 12.8752 28.9377L19.1669 22.646C19.7502 22.0627 20.521 21.771 21.2919 21.771C22.0627 21.771 22.8335 22.0627 23.4169 22.646L29.6877 28.9168C30.4794 29.7085 31.5627 30.1668 32.7085 30.1668H35.3335L40.021 25.4585C41.1964 24.2655 41.8517 22.6558 41.8439 20.9812C41.8361 19.3065 41.1658 17.703 39.9794 16.521Z" fill="#FF6700"/>
</svg>
