<svg width="42" height="42" viewBox="0 0 42 42" fill="none" xmlns="http://www.w3.org/2000/svg">
<path d="M28.1872 30.4169L21.9163 24.146C21.6872 23.9169 21.4163 23.8752 21.2705 23.8752C21.1247 23.8752 20.8538 23.9169 20.6247 24.146L14.333 30.4377C13.6247 31.146 12.5205 32.2919 8.83301 32.2919L16.5622 40.0002C17.7341 41.1706 19.3226 41.828 20.9788 41.828C22.6351 41.828 24.2236 41.1706 25.3955 40.0002L33.1455 32.271C31.2497 32.271 29.6663 31.896 28.1872 30.4169ZM14.333 11.5627L20.6247 17.8544C20.7913 18.021 21.0413 18.1252 21.2705 18.1252C21.4997 18.1252 21.7497 18.021 21.9163 17.8544L28.1455 11.6252C29.6247 10.0835 31.3122 9.72936 33.208 9.72936L25.458 2.0002C24.2861 0.829777 22.6976 0.172363 21.0413 0.172363C19.3851 0.172363 17.7966 0.829777 16.6247 2.0002L8.89551 9.70853C12.5622 9.70853 13.6872 10.9169 14.333 11.5627Z" fill="#5CAC0E"/>
<path d="M39.9789 16.521L35.2914 11.8127H32.6664C31.5414 11.8127 30.4164 12.271 29.6455 13.0835L23.3955 19.3335C22.8122 19.9168 22.0414 20.2085 21.2705 20.2085C20.4768 20.1973 19.717 19.8845 19.1455 19.3335L12.8539 13.021C12.0622 12.2293 10.9789 11.771 9.83304 11.771H6.77054L1.99971 16.5627C0.829288 17.7345 0.171875 19.3231 0.171875 20.9793C0.171875 22.6356 0.829288 24.2241 1.99971 25.396L6.77054 30.1877H9.85388C10.9789 30.1877 12.0622 29.7293 12.8747 28.9377L19.1664 22.646C19.7497 22.0627 20.5205 21.771 21.2914 21.771C22.0622 21.771 22.833 22.0627 23.4164 22.646L29.6872 28.9168C30.4789 29.7085 31.5622 30.1668 32.708 30.1668H35.333L40.0205 25.4585C41.1959 24.2655 41.8512 22.6558 41.8434 20.9812C41.8356 19.3065 41.1653 17.703 39.9789 16.521Z" fill="#5CAC0E"/>
</svg>
