<svg width="11" height="10" viewBox="0 0 11 10" fill="none" xmlns="http://www.w3.org/2000/svg">
<path d="M9.53181 5.71429H5.96038V9.28571C5.96038 9.47515 5.88512 9.65684 5.75117 9.79079C5.61722 9.92474 5.43553 10 5.24609 10C5.05665 10 4.87497 9.92474 4.74102 9.79079C4.60706 9.65684 4.53181 9.47515 4.53181 9.28571V5.71429H0.960379C0.770939 5.71429 0.589258 5.63903 0.455303 5.50508C0.321349 5.37112 0.246094 5.18944 0.246094 5C0.246094 4.81056 0.321349 4.62888 0.455303 4.49492C0.589258 4.36097 0.770939 4.28571 0.960379 4.28571H4.53181V0.714286C4.53181 0.524845 4.60706 0.343164 4.74102 0.209209C4.87497 0.0752547 5.05665 0 5.24609 0C5.43553 0 5.61722 0.0752547 5.75117 0.209209C5.88512 0.343164 5.96038 0.524845 5.96038 0.714286V4.28571H9.53181C9.72125 4.28571 9.90293 4.36097 10.0369 4.49492C10.1708 4.62888 10.2461 4.81056 10.2461 5C10.2461 5.18944 10.1708 5.37112 10.0369 5.50508C9.90293 5.63903 9.72125 5.71429 9.53181 5.71429Z" fill="white"/>
</svg>
