<svg width="93" height="74" viewBox="0 0 93 74" fill="none" xmlns="http://www.w3.org/2000/svg">
<path d="M4.56 63.605C3.86 63.605 3.23 63.485 2.67 63.245C2.11 62.995 1.67 62.645 1.35 62.195C1.03 61.745 0.87 61.22 0.87 60.62H2.7C2.74 61.07 2.915 61.44 3.225 61.73C3.545 62.02 3.99 62.165 4.56 62.165C5.15 62.165 5.61 62.025 5.94 61.745C6.27 61.455 6.435 61.085 6.435 60.635C6.435 60.285 6.33 60 6.12 59.78C5.92 59.56 5.665 59.39 5.355 59.27C5.055 59.15 4.635 59.02 4.095 58.88C3.415 58.7 2.86 58.52 2.43 58.34C2.01 58.15 1.65 57.86 1.35 57.47C1.05 57.08 0.9 56.56 0.9 55.91C0.9 55.31 1.05 54.785 1.35 54.335C1.65 53.885 2.07 53.54 2.61 53.3C3.15 53.06 3.775 52.94 4.485 52.94C5.495 52.94 6.32 53.195 6.96 53.705C7.61 54.205 7.97 54.895 8.04 55.775H6.15C6.12 55.395 5.94 55.07 5.61 54.8C5.28 54.53 4.845 54.395 4.305 54.395C3.815 54.395 3.415 54.52 3.105 54.77C2.795 55.02 2.64 55.38 2.64 55.85C2.64 56.17 2.735 56.435 2.925 56.645C3.125 56.845 3.375 57.005 3.675 57.125C3.975 57.245 4.385 57.375 4.905 57.515C5.595 57.705 6.155 57.895 6.585 58.085C7.025 58.275 7.395 58.57 7.695 58.97C8.005 59.36 8.16 59.885 8.16 60.545C8.16 61.075 8.015 61.575 7.725 62.045C7.445 62.515 7.03 62.895 6.48 63.185C5.94 63.465 5.3 63.605 4.56 63.605ZM15.5927 63.5L13.1927 59.33H11.8877V63.5H10.1777V53.075H13.7777C14.5777 53.075 15.2527 53.215 15.8027 53.495C16.3627 53.775 16.7777 54.15 17.0477 54.62C17.3277 55.09 17.4677 55.615 17.4677 56.195C17.4677 56.875 17.2677 57.495 16.8677 58.055C16.4777 58.605 15.8727 58.98 15.0527 59.18L17.6327 63.5H15.5927ZM11.8877 57.965H13.7777C14.4177 57.965 14.8977 57.805 15.2177 57.485C15.5477 57.165 15.7127 56.735 15.7127 56.195C15.7127 55.655 15.5527 55.235 15.2327 54.935C14.9127 54.625 14.4277 54.47 13.7777 54.47H11.8877V57.965ZM20.3453 63.605C20.0353 63.605 19.7753 63.5 19.5653 63.29C19.3553 63.08 19.2503 62.82 19.2503 62.51C19.2503 62.2 19.3553 61.94 19.5653 61.73C19.7753 61.52 20.0353 61.415 20.3453 61.415C20.6453 61.415 20.9003 61.52 21.1103 61.73C21.3203 61.94 21.4253 62.2 21.4253 62.51C21.4253 62.82 21.3203 63.08 21.1103 63.29C20.9003 63.5 20.6453 63.605 20.3453 63.605ZM26.5999 58.265C26.5999 57.245 26.8349 56.33 27.3049 55.52C27.7849 54.71 28.4299 54.08 29.2399 53.63C30.0599 53.17 30.9549 52.94 31.9249 52.94C33.0349 52.94 34.0199 53.215 34.8799 53.765C35.7499 54.305 36.3799 55.075 36.7699 56.075H34.7149C34.4449 55.525 34.0699 55.115 33.5899 54.845C33.1099 54.575 32.5549 54.44 31.9249 54.44C31.2349 54.44 30.6199 54.595 30.0799 54.905C29.5399 55.215 29.1149 55.66 28.8049 56.24C28.5049 56.82 28.3549 57.495 28.3549 58.265C28.3549 59.035 28.5049 59.71 28.8049 60.29C29.1149 60.87 29.5399 61.32 30.0799 61.64C30.6199 61.95 31.2349 62.105 31.9249 62.105C32.5549 62.105 33.1099 61.97 33.5899 61.7C34.0699 61.43 34.4449 61.02 34.7149 60.47H36.7699C36.3799 61.47 35.7499 62.24 34.8799 62.78C34.0199 63.32 33.0349 63.59 31.9249 63.59C30.9449 63.59 30.0499 63.365 29.2399 62.915C28.4299 62.455 27.7849 61.82 27.3049 61.01C26.8349 60.2 26.5999 59.285 26.5999 58.265ZM45.0565 61.37H40.6915L39.9415 63.5H38.1565L41.8915 53.06H43.8715L47.6065 63.5H45.8065L45.0565 61.37ZM44.5765 59.975L42.8815 55.13L41.1715 59.975H44.5765ZM60.2105 53.075V63.5H58.5005V56.36L55.3205 63.5H54.1355L50.9405 56.36V63.5H49.2305V53.075H51.0755L54.7355 61.25L58.3805 53.075H60.2105ZM64.168 54.455V57.515H67.768V58.91H64.168V62.105H68.218V63.5H62.458V53.06H68.218V54.455H64.168ZM72.0342 62.12H75.5592V63.5H70.3242V53.075H72.0342V62.12ZM81.7443 63.605C80.7743 63.605 79.8793 63.38 79.0593 62.93C78.2493 62.47 77.6043 61.835 77.1243 61.025C76.6543 60.205 76.4193 59.285 76.4193 58.265C76.4193 57.245 76.6543 56.33 77.1243 55.52C77.6043 54.71 78.2493 54.08 79.0593 53.63C79.8793 53.17 80.7743 52.94 81.7443 52.94C82.7243 52.94 83.6193 53.17 84.4293 53.63C85.2493 54.08 85.8943 54.71 86.3643 55.52C86.8343 56.33 87.0693 57.245 87.0693 58.265C87.0693 59.285 86.8343 60.205 86.3643 61.025C85.8943 61.835 85.2493 62.47 84.4293 62.93C83.6193 63.38 82.7243 63.605 81.7443 63.605ZM81.7443 62.12C82.4343 62.12 83.0493 61.965 83.5893 61.655C84.1293 61.335 84.5493 60.885 84.8493 60.305C85.1593 59.715 85.3143 59.035 85.3143 58.265C85.3143 57.495 85.1593 56.82 84.8493 56.24C84.5493 55.66 84.1293 55.215 83.5893 54.905C83.0493 54.595 82.4343 54.44 81.7443 54.44C81.0543 54.44 80.4393 54.595 79.8993 54.905C79.3593 55.215 78.9343 55.66 78.6243 56.24C78.3243 56.82 78.1743 57.495 78.1743 58.265C78.1743 59.035 78.3243 59.715 78.6243 60.305C78.9343 60.885 79.3593 61.335 79.8993 61.655C80.4393 61.965 81.0543 62.12 81.7443 62.12ZM81.7443 51.185L79.5993 52.475V51.14L81.7443 49.895L83.8893 51.14V52.475L81.7443 51.185Z" fill="#D9D9D9"/>
<g clip-path="url(#clip0_62321_161)">
<path d="M36.6697 45.9874C36.6697 45.9115 36.5144 45.8493 36.3245 45.8493C36.1346 45.8493 35.9793 45.7872 35.9793 45.7112C35.9793 45.6353 35.8866 45.5731 35.7732 45.5731C35.6598 45.5731 35.403 45.4333 35.2026 45.2624C34.1256 44.3444 33.7174 43.8416 33.2792 42.8933C32.8562 41.9777 32.8033 41.7345 32.8051 40.7143C32.8067 39.5051 32.9487 38.9342 33.459 38.0724C33.6299 37.7839 33.7697 37.5186 33.7697 37.483C33.7697 37.3856 34.9922 36.1826 35.0912 36.1826C35.1385 36.1826 35.3469 36.0617 35.5544 35.9139C36.238 35.4272 37.0946 35.22 38.4323 35.2179C39.1359 35.2168 39.8195 35.2705 39.9514 35.3371C40.0832 35.4038 40.42 35.5561 40.6996 35.6756C40.9792 35.7951 41.3459 36.0046 41.5145 36.1413C42.1846 36.6843 43.1602 37.7404 43.1602 37.9227C43.1602 38.0289 43.2224 38.1159 43.2984 38.1159C43.3743 38.1159 43.4365 38.2712 43.4365 38.4611C43.4365 38.651 43.4897 38.8063 43.5548 38.8063C43.6773 38.8063 43.9031 40.2688 43.8746 40.8778C43.8369 41.6845 43.6758 42.5349 43.5606 42.5349C43.4923 42.5349 43.4364 42.6903 43.4364 42.8802C43.4364 43.0701 43.3743 43.2254 43.2983 43.2254C43.2224 43.2254 43.1602 43.3263 43.1602 43.4497C43.1602 43.7297 41.5249 45.3656 41.115 45.4957C40.9487 45.5484 40.8126 45.6496 40.8126 45.7205C40.8126 45.7912 40.6262 45.8493 40.3983 45.8493C40.1705 45.8493 39.984 45.9115 39.984 45.9874C39.984 46.0718 39.3396 46.1255 38.3269 46.1255C37.3142 46.1255 36.6697 46.0718 36.6697 45.9874ZM40.358 44.6523C41.0827 44.2477 41.9566 43.403 42.2625 42.8114C43.0566 41.2759 43.0566 40.0656 42.2625 38.5301C42.0191 38.0592 41.0261 37.0112 40.8234 37.0112C40.7416 37.0112 40.6745 36.949 40.6745 36.8731C40.6745 36.7972 40.5502 36.735 40.3983 36.735C40.2465 36.735 40.1222 36.6799 40.1222 36.6125C40.1222 36.4892 39.6798 36.3707 38.6842 36.2272C38.1093 36.1443 36.6698 36.4243 36.6698 36.6189C36.6698 36.6828 36.5454 36.735 36.3936 36.735C36.2417 36.735 36.1174 36.7971 36.1174 36.8731C36.1174 36.949 36.017 37.0112 35.8942 37.0112C35.6286 37.0112 34.5983 38.0677 34.5983 38.3401C34.5983 38.4447 34.5362 38.5302 34.4602 38.5302C34.3843 38.5302 34.3221 38.6494 34.3221 38.7949C34.3221 38.9405 34.2445 39.0855 34.1495 39.1171C34.0256 39.1585 33.9769 39.5966 33.9769 40.6707C33.9769 41.7448 34.0256 42.183 34.1495 42.2243C34.2444 42.2559 34.3221 42.4032 34.3221 42.5515C34.3221 42.6997 34.4477 42.9587 34.6013 43.1268C34.7549 43.295 35.0515 43.6262 35.2607 43.8628C35.6896 44.348 36.638 44.8786 37.3602 45.0374C38.2452 45.232 39.6408 45.0531 40.358 44.6523ZM37.2367 42.5244C36.9788 42.3672 36.6992 42.1655 36.6152 42.0761C36.2328 41.6689 35.9506 40.1874 36.2555 40.1874C36.3314 40.1874 36.3936 40.0292 36.3936 39.8359C36.3936 39.4527 36.948 38.8064 37.2768 38.8064C37.3897 38.8064 37.5204 38.7443 37.5674 38.6683C37.7625 38.3526 39.5651 38.6325 39.5687 38.9791C39.5692 39.036 39.6363 39.0826 39.7178 39.0826C39.9347 39.0826 40.2603 39.4447 40.2603 39.686C40.2603 39.8009 40.3224 39.9332 40.3984 39.9802C40.5577 40.0787 40.5891 41.4302 40.432 41.4302C40.3746 41.4302 40.2502 41.6053 40.1554 41.8193C39.7607 42.7111 38.1724 43.0948 37.2367 42.5244ZM39.073 41.5325C39.3936 41.2119 39.4521 40.6175 39.2128 40.113C39.0095 39.6846 38.9284 39.635 38.4309 39.635C37.4201 39.635 36.8836 40.6642 37.5329 41.3577C37.8818 41.7304 38.7739 41.8316 39.073 41.5325ZM49.5127 45.9874C49.5127 45.9115 49.4294 45.8493 49.3277 45.8493C48.9637 45.8493 48.8222 45.1546 48.8222 43.3684C48.8222 42.3908 48.7845 41.4926 48.7384 41.3725C48.6678 41.1886 48.3671 41.1541 46.8384 41.1541H45.0222L44.9818 40.0148C44.9595 39.3882 44.8823 38.8548 44.8104 38.8295C44.7383 38.8041 44.6793 38.6738 44.6793 38.54C44.6793 38.2543 44.2913 37.436 44.0316 37.174C43.9321 37.0736 43.8507 36.9379 43.8507 36.8725C43.8507 36.6943 42.3852 35.216 42.2085 35.216C42.1244 35.216 42.0555 35.1538 42.0555 35.0778C42.0555 35.0019 41.9623 34.9397 41.8484 34.9397C41.7344 34.9397 41.6412 34.8776 41.6412 34.8016C41.6412 34.7257 41.5169 34.6635 41.365 34.6635C41.2131 34.6635 41.0888 34.6014 41.0888 34.5254C41.0888 34.4495 40.9076 34.3873 40.686 34.3873C40.4645 34.3873 40.2574 34.3097 40.2257 34.2147C40.1449 33.9722 36.5074 33.9767 36.4265 34.2194C36.3957 34.3118 36.2638 34.3873 36.1334 34.3873C35.8339 34.3873 35.1532 34.6986 35.1518 34.8361C35.1512 34.8931 35.0581 34.9396 34.9451 34.9396C34.7001 34.9396 34.3001 35.2418 33.6366 35.928C32.767 36.8273 32.5269 37.1353 32.5269 37.3514C32.5269 37.468 32.4647 37.5634 32.3888 37.5634C32.3128 37.5634 32.2507 37.7188 32.2507 37.9087C32.2507 38.0986 32.1885 38.2539 32.1126 38.2539C32.0366 38.2539 31.9745 38.4404 31.9745 38.6682C31.9745 38.8961 31.9123 39.0825 31.8364 39.0825C31.7565 39.0825 31.6982 39.5223 31.6982 40.1258V41.1691L31.0423 41.127C30.6241 41.1002 30.398 41.0249 30.4186 40.9192C30.4363 40.8281 30.4539 37.677 30.458 33.9167C30.4658 26.7705 30.4658 26.7809 29.8685 26.2248C29.7356 26.1011 29.6269 25.9381 29.6269 25.8624C29.6269 25.6541 28.6707 25.0413 27.9697 24.8002C27.5038 24.6399 26.7522 24.5859 24.9661 24.5844L22.584 24.5828V24.0305V23.4781H25.0697C26.6348 23.4781 27.5554 23.5293 27.5554 23.6162C27.5554 23.6921 27.804 23.7543 28.1078 23.7543C28.4116 23.7543 28.6602 23.8164 28.6602 23.8924C28.6602 23.9683 28.769 24.0313 28.9019 24.0324C29.2375 24.0355 30.254 24.8751 30.9778 25.7481C31.2057 26.0231 31.6983 27.1704 31.6983 27.4264C31.6983 27.5949 32.9215 27.618 40.2257 27.5875L48.7532 27.552L48.7887 19.0246L48.8243 10.4971H49.3756H49.9269V25.3504V40.2037L50.5138 40.1612L51.1007 40.1188L51.1399 38.4669C51.1615 37.5584 51.233 36.7816 51.2989 36.7407C51.3648 36.6999 52.9163 36.684 54.7467 36.7056L58.0746 36.7449V38.9497V41.1544H54.0007H49.9269V42.0521C49.9269 42.9129 49.941 42.9497 50.2657 42.9497C50.9041 42.9497 51.5448 43.3269 51.8384 43.8756C52.0294 44.2324 52.0527 45.2973 51.8696 45.2973C51.7988 45.2973 51.7013 45.4216 51.6531 45.5735C51.6049 45.7254 51.4764 45.8497 51.3676 45.8497C51.2588 45.8497 51.1698 45.9119 51.1698 45.9878C51.1698 46.0645 50.8016 46.1259 50.3412 46.1259C49.8809 46.1259 49.5127 46.0642 49.5127 45.9874ZM30.3519 9.43864C30.2358 9.39182 30.1792 9.03793 30.1792 8.35978V7.35055L30.7344 7.12842C31.0398 7.00629 31.3815 6.90628 31.4939 6.90628C31.6064 6.90628 31.6983 6.84412 31.6983 6.76817C31.6983 6.69223 31.8847 6.63007 32.1126 6.63007C32.3404 6.63007 32.5269 6.56791 32.5269 6.49196C32.5269 6.41602 32.6822 6.35386 32.8721 6.35386C33.062 6.35386 33.2173 6.2917 33.2173 6.21576C33.2173 6.13981 33.4038 6.07765 33.6316 6.07765C33.8595 6.07765 34.0459 6.01549 34.0459 5.93955C34.0459 5.8636 34.2323 5.80144 34.4602 5.80144C34.6881 5.80144 34.8745 5.73928 34.8745 5.66334C34.8745 5.58739 35.0262 5.52523 35.2116 5.52523C35.397 5.52523 35.5871 5.46307 35.634 5.38713C35.681 5.31119 35.8245 5.24918 35.9529 5.24949C36.1692 5.24987 37.6719 4.69162 38.2215 4.40674C38.3533 4.33832 38.5864 4.28242 38.7393 4.28242C38.8923 4.28242 39.0174 4.22025 39.0174 4.14431C39.0174 4.06837 39.2038 4.00621 39.4317 4.00621C39.6595 4.00621 39.846 3.94404 39.846 3.8681C39.846 3.79216 39.9977 3.73 40.183 3.73C40.3684 3.73 40.5585 3.66783 40.6055 3.59189C40.6525 3.51595 40.8425 3.45379 41.0279 3.45379C41.2133 3.45379 41.365 3.39162 41.365 3.31568C41.365 3.23974 41.4724 3.17758 41.6038 3.17758C41.8472 3.17758 43.5867 2.57526 44.0215 2.34042C44.1533 2.26917 44.3864 2.21092 44.5393 2.21092C44.6923 2.21092 44.8174 2.14876 44.8174 2.07282C44.8174 1.99688 44.9727 1.93471 45.1626 1.93471C45.3525 1.93471 45.5079 1.87255 45.5079 1.79661C45.5079 1.72067 45.6943 1.65851 45.9222 1.65851C46.15 1.65851 46.3365 1.59634 46.3365 1.5204C46.3365 1.44446 46.5125 1.3823 46.7277 1.3823C46.9429 1.3823 47.1616 1.33971 47.2136 1.28772C47.592 0.909342 49.5199 0.644469 49.6239 0.956567C49.6513 1.03877 49.855 1.1061 50.0765 1.1061C50.2981 1.1061 50.4793 1.16826 50.4793 1.24421C50.4793 1.32015 50.6658 1.38231 50.8936 1.38231C51.1215 1.38231 51.3079 1.44447 51.3079 1.52042C51.3079 1.59636 51.5254 1.65852 51.7913 1.65852C52.0571 1.65852 52.2746 1.72068 52.2746 1.79663C52.2746 1.87257 52.4263 1.93473 52.6117 1.93473C52.7971 1.93473 52.9872 1.99689 53.0341 2.07283C53.0811 2.14878 53.266 2.21094 53.445 2.21094C53.6241 2.21094 53.7913 2.2576 53.8166 2.31444C53.8716 2.43798 56.8609 3.45374 57.1696 3.45374C57.2876 3.45374 57.3841 3.5159 57.3841 3.59185C57.3841 3.66779 57.5706 3.72995 57.7984 3.72995C58.0263 3.72995 58.2127 3.79211 58.2127 3.86805C58.2127 3.944 58.3991 4.00616 58.627 4.00616C58.8549 4.00616 59.0413 4.06832 59.0413 4.14426C59.0413 4.22021 59.224 4.28237 59.4474 4.28237C59.6708 4.28237 59.8874 4.33702 59.9287 4.40403C59.9701 4.47089 60.1446 4.55795 60.3166 4.59738C60.4887 4.63684 60.9703 4.79962 61.387 4.95911C61.8036 5.11861 62.2542 5.24909 62.3882 5.24909C62.5222 5.24909 62.6318 5.31125 62.6318 5.38719C62.6318 5.46313 62.8182 5.52529 63.0461 5.52529C63.2739 5.52529 63.4604 5.58746 63.4604 5.6634C63.4604 5.73934 63.6468 5.8015 63.8746 5.8015C64.1025 5.8015 64.2889 5.86367 64.2889 5.93961C64.2889 6.01555 64.5064 6.07771 64.7723 6.07771C65.0381 6.07771 65.2556 6.13988 65.2556 6.21582C65.2556 6.29176 65.442 6.35392 65.6699 6.35392C65.8978 6.35392 66.0842 6.41609 66.0842 6.49203C66.0842 6.56797 66.2359 6.63013 66.4213 6.63013C66.6067 6.63013 66.7925 6.68541 66.8343 6.75289C66.8761 6.82038 67.0816 6.91578 67.2912 6.96479C68.3901 7.22174 68.4318 7.27052 68.4318 8.29915C68.4318 9.09217 68.3889 9.26721 68.1647 9.38715C67.8163 9.57362 64.0759 9.57362 63.7275 9.38715C63.5026 9.2669 63.4604 9.09198 63.4604 8.28239V7.32058H63.0461H62.6318V8.28239C62.6318 9.09198 62.5895 9.26684 62.3647 9.38715C61.9583 9.60463 47.4111 9.5828 47.1927 9.36445C47.0959 9.26768 47.0269 8.80398 47.0269 8.25094V7.30313L46.5781 7.34635L46.1293 7.38957L46.0878 8.35242C46.0639 8.90731 45.9762 9.35988 45.8807 9.42055C45.6372 9.57525 36.5026 9.55098 36.2555 9.39503C36.1179 9.30813 36.0252 8.95004 35.9793 8.32689C35.9131 7.42671 35.8952 7.38783 35.5305 7.34587L35.1507 7.30218V8.25587C35.1507 9.14381 35.1265 9.2206 34.799 9.3698C34.4522 9.52781 30.7162 9.58571 30.3519 9.43864Z" fill="#D9D9D9"/>
</g>
<defs>
<clipPath id="clip0_62321_161">
<rect width="46.9744" height="46.9744" fill="white" transform="translate(22.0752)"/>
</clipPath>
</defs>
</svg>
