<svg width="24" height="27" viewBox="0 0 24 27" fill="none" xmlns="http://www.w3.org/2000/svg">
<path fill-rule="evenodd" clip-rule="evenodd" d="M7.1385 6.20024V4.87952C7.1385 3.58539 7.65069 2.34426 8.56241 1.42918C9.47413 0.514091 10.7107 0 12.0001 0C13.2894 0 14.526 0.514091 15.4377 1.42918C16.3494 2.34426 16.8616 3.58539 16.8616 4.87952V6.20024C18.5301 6.25099 19.5517 6.43055 20.3308 7.07986C21.4107 7.98029 21.6959 9.5027 22.2651 12.5488L23.2374 17.7536C24.0373 22.0372 24.4366 24.179 23.2711 25.5895C22.1043 27 19.9328 27 15.5911 27H8.40898C4.06599 27 1.89579 27 0.729019 25.5895C-0.437754 24.179 -0.0358654 22.0372 0.762726 17.7536L1.73504 12.5488C2.30546 9.504 2.58937 7.98029 3.66929 7.07986C4.44843 6.43055 5.47001 6.25099 7.1385 6.20024ZM9.08312 4.87952C9.08312 4.10304 9.39044 3.35837 9.93747 2.80931C10.4845 2.26026 11.2264 1.95181 12.0001 1.95181C12.7737 1.95181 13.5156 2.26026 14.0626 2.80931C14.6097 3.35837 14.917 4.10304 14.917 4.87952V6.18072H9.08312V4.87952Z" fill="#5CAC0E"/>
</svg>
