<svg width="29" height="41" viewBox="0 0 29 41" fill="none" xmlns="http://www.w3.org/2000/svg">
<path d="M2.98356 13.0117L6.33942 36.5603C6.46967 37.4818 6.93057 38.3246 7.6362 38.9314C8.34183 39.5383 9.24406 39.8678 10.1747 39.8586H18.8808C19.8114 39.8678 20.7136 39.5383 21.4193 38.9314C22.1249 38.3246 22.5858 37.4818 22.716 36.5603L25.9952 13.0117M1.06592 13.0117H27.9128" stroke="#5CAC0E" stroke-width="2" stroke-linecap="round" stroke-linejoin="round"/>
<path d="M4.90137 26.4352C6.41965 25.7991 8.04933 25.4715 9.69546 25.4715C11.3416 25.4715 12.9713 25.7991 14.4896 26.4352C16.0078 27.0712 17.6375 27.3988 19.2836 27.3988C20.9298 27.3988 22.5595 27.0712 24.0777 26.4352M14.4896 13.0117L16.4072 1.50586H20.2425" stroke="#5CAC0E" stroke-width="2" stroke-linecap="round" stroke-linejoin="round"/>
</svg>
