<svg width="37" height="28" viewBox="0 0 37 28" fill="none" xmlns="http://www.w3.org/2000/svg">
<path d="M0.597772 12.1227C0.215019 12.5056 0 13.0248 0 13.5662C0 14.1075 0.215019 14.6267 0.597772 15.0096L12.1475 26.5593C12.3358 26.7543 12.5611 26.9099 12.8102 27.0169C13.0593 27.1239 13.3272 27.1802 13.5983 27.1825C13.8694 27.1849 14.1382 27.1332 14.3891 27.0306C14.6401 26.9279 14.868 26.7763 15.0597 26.5846C15.2514 26.3929 15.403 26.165 15.5057 25.9141C15.6083 25.6631 15.66 25.3943 15.6576 25.1232C15.6553 24.8521 15.5989 24.5842 15.4919 24.3351C15.3849 24.086 15.2294 23.8607 15.0344 23.6724L6.96981 15.6078L34.0076 15.6078C34.5491 15.6078 35.0684 15.3927 35.4513 15.0098C35.8342 14.6269 36.0493 14.1076 36.0493 13.5662C36.0493 13.0247 35.8342 12.5054 35.4513 12.1225C35.0684 11.7396 34.5491 11.5245 34.0076 11.5245L6.96981 11.5245L15.0344 3.4599C15.4063 3.07484 15.6121 2.55911 15.6074 2.02379C15.6028 1.48848 15.3881 0.9764 15.0095 0.597858C14.631 0.219316 14.1189 0.0045948 13.5836 -5.72205e-05C13.0483 -0.00470924 12.5325 0.20108 12.1475 0.572987L0.597772 12.1227Z" fill="white"/>
</svg>
